<?xml version="1.0" standalone="no"?>
<!DOCTYPE svg PUBLIC "-//W3C//DTD SVG 20010904//EN"
 "http://www.w3.org/TR/2001/REC-SVG-20010904/DTD/svg10.dtd">
<svg version="1.0" xmlns="http://www.w3.org/2000/svg"
 width="600.000000pt" height="399.000000pt" viewBox="0 0 600.000000 399.000000"
 preserveAspectRatio="xMidYMid meet">

<g transform="translate(0.000000,399.000000) scale(0.100000,-0.100000)"
fill="#000000" stroke="none">
<path d="M222 3961 c31 -16 67 -36 79 -44 13 -9 33 -14 48 -11 14 3 52 1 83
-4 65 -10 69 -8 83 33 8 22 18 31 38 33 15 2 27 8 27 13 0 5 -86 9 -207 9
l-208 0 57 -29z"/>
<path d="M675 3950 c-9 -55 3 -66 81 -75 55 -6 69 -4 85 11 15 13 18 25 13 52
-5 24 -2 37 7 43 9 5 -23 9 -83 9 l-96 0 -7 -40z"/>
<path d="M1000 3971 c0 -55 13 -81 43 -89 32 -8 297 -5 306 3 8 9 -43 56 -56
51 -7 -3 -13 -1 -13 4 0 5 -8 19 -17 30 -16 18 -30 20 -140 20 -114 0 -123 -1
-123 -19z"/>
<path d="M1449 3972 c5 -10 17 -25 26 -32 9 -7 23 -26 31 -41 19 -37 29 -38
429 -44 417 -6 704 -14 775 -22 67 -8 94 -8 285 -5 l150 2 19 47 c11 25 32 61
49 79 l29 34 -901 0 c-871 0 -901 -1 -892 -18z"/>
<path d="M3404 3982 c-16 -10 -114 -134 -114 -143 0 -12 32 -17 145 -23 86 -4
102 -8 117 -26 9 -11 14 -28 11 -36 -5 -12 -40 -14 -252 -10 -301 6 -427 14
-465 28 -21 8 -44 8 -91 -1 -35 -7 -68 -10 -73 -7 -5 3 -119 8 -253 11 -352 8
-457 13 -467 19 -13 8 -74 19 -94 17 -10 -1 -29 -2 -43 -4 -14 -1 -25 -5 -25
-9 0 -3 -16 -16 -35 -28 -34 -21 -40 -37 -20 -53 6 -5 4 -7 -5 -4 -8 2 -16 13
-18 25 -4 26 -15 28 -32 7 -10 -12 -10 -15 1 -15 11 0 11 -2 -1 -10 -9 -5 -19
-5 -26 1 -6 5 -20 7 -30 4 -11 -4 -5 2 11 11 l30 18 -30 6 -30 6 30 8 c62 17
-12 23 -319 27 l-309 4 -3 -22 c-5 -27 11 -38 51 -34 20 1 41 -6 59 -20 l28
-22 -23 -18 c-17 -13 -42 -19 -81 -19 l-58 0 0 -55 c0 -43 -4 -57 -17 -62 -11
-4 -22 1 -31 15 -16 24 -42 28 -60 10 -20 -20 -45 12 -34 43 6 14 5 35 0 51
-8 23 -16 28 -45 28 -46 0 -66 20 -53 55 16 43 12 63 -17 77 -25 12 -30 11
-45 -4 -21 -21 -22 -38 -7 -72 14 -30 4 -76 -16 -76 -10 0 -15 -11 -15 -35 0
-28 -4 -35 -19 -35 -13 0 -20 10 -24 36 -3 20 -14 45 -24 56 -11 12 -17 36
-18 65 0 51 -13 63 -39 37 -15 -15 -15 -18 -1 -33 21 -24 20 -77 -2 -90 -10
-6 -14 -11 -9 -11 5 0 3 -6 -3 -14 -9 -11 -9 -19 0 -34 17 -27 4 -54 -23 -50
-29 4 -40 58 -12 58 37 0 -8 29 -54 35 -26 3 -59 9 -74 14 -34 11 -38 2 -38
-99 0 -61 -4 -83 -18 -101 -17 -20 -23 -22 -63 -13 -32 7 -47 16 -56 35 -12
24 -15 26 -50 17 -51 -14 -91 2 -98 39 -19 91 -23 82 -24 -54 l-1 -141 73 -6
c140 -10 282 -19 307 -19 14 0 68 2 120 3 139 4 140 4 139 -83 0 -40 4 -88 10
-107 22 -70 3 -209 -33 -249 -22 -24 -20 -31 9 -31 14 0 25 -6 26 -12 0 -7 2
-35 3 -62 1 -28 7 -51 14 -54 7 -2 12 1 12 8 0 7 6 8 19 0 14 -7 27 -6 48 5
35 18 103 19 127 2 12 -9 19 -31 22 -72 5 -75 9 -86 29 -79 8 4 22 1 30 -6 10
-9 15 -9 15 -1 0 6 6 11 14 11 8 0 18 22 26 60 12 54 30 82 30 45 0 -8 8 -15
18 -15 10 0 22 -3 26 -7 3 -4 55 -7 115 -7 103 -1 110 -2 128 -25 l20 -24 67
19 c61 17 71 24 114 79 43 54 47 65 52 125 l5 65 23 -65 c29 -83 116 -180 161
-180 23 0 32 6 39 28 6 15 11 20 11 12 1 -8 10 0 21 18 11 17 27 32 35 32 9 0
14 4 10 9 -3 5 4 13 16 16 26 8 92 67 120 107 27 37 49 121 38 139 -6 10 -9 5
-10 -16 -1 -17 -3 -23 -6 -12 -2 9 -9 14 -15 10 -7 -4 -9 -1 -6 9 4 8 3 21 -2
28 -8 14 -13 4 -25 -57 -10 -48 -28 -42 -20 6 7 45 -11 96 -45 126 l-23 20 12
-22 c15 -28 14 -33 -4 -33 -8 0 -15 5 -15 10 0 6 -6 10 -14 10 -8 0 -16 6 -19
13 -3 9 -9 9 -25 0 -22 -13 -52 -8 -52 9 0 6 -14 8 -35 4 -32 -6 -35 -5 -35
16 0 20 -5 18 -46 -22 -46 -45 -46 -45 -41 -100 5 -50 4 -53 -9 -36 -8 11 -14
28 -14 37 0 31 -12 49 -32 49 -15 0 -18 -5 -13 -20 4 -11 2 -20 -4 -20 -6 0
-11 9 -11 19 0 14 -5 18 -19 14 -29 -7 -58 32 -65 90 -4 29 -9 63 -12 77 -4
22 -3 23 5 5 8 -17 10 -18 10 -2 1 25 -2 32 -16 31 -17 -2 -16 11 1 25 11 10
17 7 30 -11 18 -25 21 -42 6 -33 -5 3 -10 2 -10 -4 0 -5 9 -9 20 -8 22 1 28
31 9 43 -8 4 -8 9 -1 13 6 4 12 56 13 123 2 64 6 115 10 112 4 -2 11 1 14 6 4
6 25 25 47 41 47 34 100 38 169 14 62 -22 113 -46 122 -59 6 -7 7 -4 3 7 -3 9
-1 17 5 17 21 0 115 -45 136 -65 32 -30 56 -99 51 -145 -2 -22 0 -40 3 -40 4
0 5 -10 2 -22 -6 -21 -4 -21 21 5 32 35 42 20 31 -50 l-7 -46 34 6 c19 3 70 1
112 -4 63 -7 84 -5 107 7 26 13 32 13 53 -1 21 -14 26 -14 54 2 25 14 34 15
54 6 12 -7 60 -17 106 -24 76 -10 84 -14 98 -40 13 -25 13 -37 -1 -101 -8 -40
-15 -90 -15 -110 0 -20 -4 -48 -10 -63 -7 -19 -6 -47 5 -100 12 -55 13 -85 6
-117 -5 -24 -12 -54 -15 -68 -3 -14 -18 -33 -34 -42 -64 -38 -39 -189 34 -202
41 -8 57 -27 48 -60 -7 -28 4 -33 37 -15 17 8 19 19 17 72 -1 34 3 71 9 82 6
11 14 45 18 75 6 53 5 56 -19 69 -14 8 -28 24 -32 35 -3 12 -13 36 -22 54 -14
31 -14 37 5 76 23 47 66 77 85 58 11 -11 13 -167 2 -203 -4 -14 2 -15 43 -9
52 8 71 4 91 -19 12 -14 13 -14 8 2 -5 16 -2 18 27 13 17 -3 26 -3 20 0 -7 3
-13 14 -13 25 0 13 -7 19 -21 19 -11 0 -18 -4 -14 -9 8 -14 -12 -23 -35 -16
-13 4 -20 15 -20 31 0 24 2 25 69 23 83 -2 109 13 94 59 -9 25 -14 27 -73 30
-36 2 -69 7 -75 12 -13 11 -19 48 -19 120 0 54 20 164 23 125 1 -15 21 -29 74
-53 40 -18 82 -32 95 -32 12 0 22 -4 22 -10 0 -18 18 -10 23 11 4 15 -8 34
-49 74 -45 44 -55 59 -52 82 2 18 10 29 23 32 28 5 35 19 35 71 0 35 5 49 21
60 11 8 49 36 82 62 34 26 67 48 73 48 6 0 28 17 50 38 63 61 105 92 114 87
13 -8 50 26 43 38 -3 6 -1 7 5 3 11 -7 64 20 102 51 75 62 109 96 104 105 -4
6 -1 9 7 6 21 -7 30 -105 23 -243 -8 -150 -14 -167 -52 -159 -20 4 -54 -4
-106 -25 -62 -25 -93 -31 -168 -33 -71 -2 -92 -6 -94 -18 -2 -8 -8 -37 -14
-63 -5 -27 -12 -53 -15 -58 -4 -5 0 -9 7 -9 10 0 10 -2 -1 -9 -20 -13 -2 -19
78 -31 68 -10 75 -9 129 17 34 16 81 28 117 31 33 2 66 9 73 15 10 8 16 7 23
-4 12 -20 11 -240 -2 -319 -6 -36 -10 -76 -9 -90 8 -72 1 -358 -20 -910 -6
-146 -15 -438 -20 -650 -10 -353 -15 -458 -26 -469 -6 -7 -41 37 -53 67 -10
24 -66 72 -84 72 -12 0 -8 -27 12 -72 17 -39 17 -53 8 -126 -6 -45 -16 -82
-22 -82 -5 0 -19 18 -29 40 -20 42 -36 44 -36 5 0 -18 -7 -26 -24 -31 -30 -7
-36 -28 -41 -139 -6 -164 -16 -330 -21 -357 l-6 -28 316 0 316 0 1 23 0 22 16
-22 c14 -20 24 -23 89 -23 59 0 74 3 74 15 0 8 -4 15 -8 15 -5 0 -21 25 -37
55 -26 52 -60 76 -53 38 4 -28 -11 -43 -43 -43 l-29 0 0 113 c-2 270 4 623 14
847 3 69 8 319 12 555 7 426 6 430 -13 413 -13 -12 -36 -18 -65 -18 l-46 0 -6
-132 c-3 -73 -10 -293 -16 -488 -6 -195 -12 -413 -15 -485 -2 -71 -7 -224 -11
-340 -4 -116 -11 -216 -17 -222 -15 -20 -47 -16 -47 5 0 10 5 23 11 29 18 18
49 1433 32 1433 -16 0 -23 -26 -23 -81 0 -44 -3 -51 -26 -59 -14 -6 -29 -8
-34 -5 -5 3 -6 58 -4 123 2 64 4 124 3 132 -1 8 -2 50 -3 93 -1 59 3 80 14 87
8 5 10 10 4 10 -18 0 -26 180 -14 300 6 58 11 116 10 130 0 28 0 130 0 230 1
36 0 117 0 180 -1 110 5 207 16 241 5 18 33 29 76 29 21 0 29 6 32 23 3 12 7
132 10 267 3 135 8 257 12 272 3 15 15 29 28 32 11 3 58 29 103 58 45 29 112
72 150 95 l68 43 -42 0 c-33 0 -57 -9 -104 -40 -63 -40 -79 -47 -79 -32 0 5
23 21 50 36 28 15 50 29 50 32 0 2 -56 4 -125 4 l-125 0 0 -58 c0 -68 -11 -82
-61 -82 -49 0 -65 20 -40 51 10 13 22 35 26 49 4 14 13 28 19 32 6 4 -86 8
-204 8 -118 0 -220 -4 -226 -8z m286 -114 c0 -19 -18 -43 -25 -36 -4 3 -2 16
5 27 12 24 20 27 20 9z m5 -98 c7 -23 -2 -60 -15 -60 -5 0 -26 11 -46 25 -36
24 -36 25 -13 33 13 5 31 12 39 15 25 9 28 8 35 -13z m-2168 -42 c16 -13 16
-38 0 -58 -33 -42 -147 -6 -121 37 24 40 86 51 121 21z m-218 -28 c-9 -5 -28
-6 -45 0 -27 8 -26 8 16 9 32 0 40 -2 29 -9z m1461 -40 c0 -15 -7 -20 -25 -20
-18 0 -25 5 -25 20 0 15 7 20 25 20 18 0 25 -5 25 -20z m668 -22 c8 -8 9 -15
1 -25 -21 -25 -49 -9 -49 28 0 13 34 11 48 -3z m-1938 -64 c0 -14 -4 -23 -9
-20 -5 3 -8 -2 -7 -12 0 -9 7 -19 14 -22 10 -4 6 -14 -12 -35 l-25 -29 0 49
c1 28 5 55 10 61 6 7 9 16 8 20 -3 18 1 25 11 19 6 -3 10 -17 10 -31z m633
-11 c4 -3 -3 -11 -16 -18 -21 -11 -36 -4 -37 18 0 9 44 9 53 0z m-823 -162
c13 -32 11 -128 -3 -148 -24 -33 -66 48 -58 112 3 24 28 65 40 65 5 0 14 -13
21 -29z m415 -281 c3 -6 -1 -7 -9 -4 -18 7 -21 14 -7 14 6 0 13 -4 16 -10z
m175 -70 c13 -9 13 -10 0 -9 -8 0 -24 4 -35 9 l-20 9 20 0 c11 0 27 -4 35 -9z
m988 -2 c7 -7 12 -21 12 -33 0 -30 -19 -45 -55 -45 -36 0 -55 15 -55 45 0 30
19 45 55 45 17 0 36 -5 43 -12z m-1495 -13 c18 -8 22 -41 8 -64 -10 -16 -40
-11 -192 31 -25 7 -42 7 -57 -1 -26 -14 -72 -14 -72 -1 0 15 -42 11 -64 -5
-27 -20 -31 -19 -44 10 -14 30 -3 39 41 32 18 -3 70 -2 117 3 91 9 234 6 263
-5z m450 -12 c53 -5 70 -10 78 -26 13 -23 4 -33 -40 -42 -32 -7 -34 -6 -29 19
5 25 4 26 -49 26 -51 0 -53 -1 -43 -20 6 -11 8 -26 4 -32 -5 -7 -2 -9 9 -5 11
4 14 2 11 -8 -4 -9 -12 -11 -22 -6 -10 4 -30 14 -47 22 -39 19 -46 55 -13 68
28 12 54 13 141 4z m2107 -1453 c9 -17 8 -20 -10 -20 -13 0 -20 7 -20 20 0 11
4 20 10 20 5 0 14 -9 20 -20z m-196 -675 c-4 -8 -8 -15 -10 -15 -2 0 -4 7 -4
15 0 8 4 15 10 15 5 0 7 -7 4 -15z m-4 -156 c0 -17 -4 -28 -10 -24 -5 3 -10
17 -10 31 0 13 5 24 10 24 6 0 10 -14 10 -31z m20 -294 c16 -20 1 -38 -23 -29
-17 6 -22 25 -10 37 10 11 19 8 33 -8z"/>
<path d="M5250 3966 c-25 -13 -76 -39 -114 -59 -38 -21 -74 -37 -80 -37 -6 0
-22 -7 -35 -16 -13 -9 -41 -17 -62 -18 -28 -2 -44 -9 -55 -24 -9 -13 -26 -22
-42 -22 -15 0 -53 -13 -84 -29 -32 -16 -58 -27 -58 -24 0 3 -8 -1 -17 -9 -10
-8 -44 -30 -76 -48 -57 -32 -58 -32 -64 -11 -6 25 -11 26 -172 40 -121 10
-141 9 -141 -9 0 -14 52 -23 173 -29 66 -3 118 -10 118 -16 2 -13 -168 -83
-202 -84 -15 -1 -38 -10 -53 -22 -14 -11 -42 -25 -61 -30 -42 -12 -112 -81
-120 -120 -5 -24 -12 -29 -36 -29 -26 0 -29 -3 -30 -32 l-1 -33 -11 25 c-17
36 -44 34 -53 -4 l-8 -31 -7 30 c-6 25 -7 22 -8 -20 -1 -27 -5 -149 -11 -270
-5 -121 -12 -314 -15 -430 -3 -115 -8 -249 -11 -297 -3 -47 -3 -100 1 -117 6
-27 9 -29 29 -20 17 8 32 7 61 -5 21 -9 40 -14 42 -12 3 2 7 103 10 223 4 208
13 283 34 283 5 0 9 -12 9 -27 0 -50 12 -57 96 -56 73 0 78 2 98 28 12 16 23
38 26 49 4 15 17 23 43 27 51 8 58 19 13 19 -29 0 -43 -6 -58 -25 -23 -30 -58
-33 -65 -6 -6 25 -84 35 -122 15 -14 -8 -31 -14 -38 -14 -21 0 -26 89 -20 333
6 228 15 300 31 249 8 -25 3 -25 83 -12 41 7 70 7 88 0 18 -7 33 -7 47 1 12 6
53 15 92 20 39 5 96 18 128 29 31 11 64 17 73 14 10 -4 15 0 15 14 0 27 46 42
128 42 70 0 181 22 222 45 14 7 62 18 107 25 45 6 112 17 150 25 37 8 71 15
75 15 4 0 8 12 10 27 3 28 8 30 143 65 22 5 49 14 60 19 12 6 45 9 75 7 47 -3
55 -6 58 -24 4 -26 25 -23 90 14 37 20 52 23 93 17 44 -6 49 -10 49 -32 0 -16
4 -23 13 -19 6 3 20 9 30 12 9 4 17 10 17 15 0 5 11 9 25 9 l25 0 0 205 0 205
-352 -1 c-348 0 -354 0 -398 -23z m390 -31 c0 -9 -9 -15 -21 -15 -18 0 -19 2
-9 15 7 8 16 15 21 15 5 0 9 -7 9 -15z m140 -36 c51 -6 48 -7 -30 -7 -47 0
-89 3 -94 6 -16 9 19 22 44 15 14 -3 50 -10 80 -14z m-1489 -460 c13 -25 0
-43 -27 -37 -12 2 -20 13 -22 31 -3 22 1 27 17 27 11 0 25 -9 32 -21z"/>
<path d="M4018 3771 c-71 -38 -85 -53 -64 -70 9 -7 27 2 66 34 42 35 85 81 68
74 -2 -1 -33 -18 -70 -38z"/>
<path d="M1914 3371 c4 -5 -3 -7 -15 -4 -21 6 -103 -29 -116 -50 -9 -13 -55
-18 -47 -5 3 4 12 8 20 8 9 0 14 7 12 18 -3 14 -15 17 -82 17 -75 0 -79 -1
-102 -30 l-24 -30 21 -17 c14 -12 30 -15 50 -11 24 5 28 3 23 -11 -5 -13 0
-16 24 -16 42 0 83 20 80 39 -2 9 2 16 9 16 7 0 22 8 34 18 11 10 30 20 41 22
26 5 45 -5 29 -14 -16 -10 -22 -50 -11 -71 8 -14 20 -18 50 -15 37 2 71 15 41
15 -7 0 -9 5 -6 10 3 6 20 10 36 10 l30 0 -22 31 -22 31 32 -7 c39 -8 43 15 6
39 -25 17 -100 23 -91 7z"/>
<path d="M503 3238 c-46 -22 -50 -119 -5 -118 20 1 65 38 81 68 13 24 5 52
-14 52 -7 0 -19 2 -27 4 -7 3 -23 0 -35 -6z"/>
<path d="M115 3230 c-3 -6 1 -7 9 -4 18 7 21 14 7 14 -6 0 -13 -4 -16 -10z"/>
<path d="M1487 3234 c-4 -4 -7 -21 -7 -38 l1 -31 15 29 c15 26 8 56 -9 40z"/>
<path d="M2092 3195 c1 -42 2 -44 16 -24 8 12 11 30 8 45 -10 40 -24 27 -24
-21z"/>
<path d="M1865 3210 c10 -11 20 -20 23 -20 3 0 -3 9 -13 20 -10 11 -20 20 -23
20 -3 0 3 -9 13 -20z"/>
<path d="M1530 3161 c0 -6 4 -13 10 -16 6 -3 7 1 4 9 -7 18 -14 21 -14 7z"/>
<path d="M2061 3145 c-1 -11 -5 -31 -7 -45 -3 -18 -2 -22 6 -14 7 7 10 27 7
45 -2 19 -5 25 -6 14z"/>
<path d="M3873 3070 c0 -25 2 -35 4 -22 2 12 2 32 0 45 -2 12 -4 2 -4 -23z"/>
<path d="M3860 3000 c0 -11 5 -20 10 -20 6 0 10 9 10 20 0 11 -4 20 -10 20 -5
0 -10 -9 -10 -20z"/>
<path d="M5 2932 c-3 -3 -5 -35 -5 -70 0 -65 0 -65 20 -47 23 21 57 42 82 51
18 6 31 31 23 44 -8 12 -110 31 -120 22z"/>
<path d="M2367 2915 c-10 -14 -28 -25 -40 -25 -13 0 -40 -9 -61 -20 -31 -15
-50 -18 -102 -13 -71 7 -78 1 -78 -64 0 -36 -5 -40 -25 -20 -10 10 -11 -1 -5
-54 7 -71 -13 -155 -42 -179 -20 -18 -17 -28 9 -32 15 -2 21 -9 19 -21 -3 -16
0 -17 18 -7 19 10 21 9 17 -7 -15 -52 -22 -102 -31 -233 -5 -74 21 -235 89
-545 13 -60 25 -119 26 -130 2 -11 3 -207 3 -435 0 -228 3 -417 7 -420 4 -3 9
-22 10 -43 3 -36 1 -39 -36 -57 l-40 -18 43 -1 c44 -1 59 -23 25 -35 -30 -10
-76 -41 -81 -54 -2 -8 12 -11 49 -9 56 2 71 -10 43 -37 -15 -16 -15 -18 -1
-29 9 -7 15 -21 12 -32 -2 -11 -4 -23 -4 -27 -1 -11 -241 -10 -346 2 -203 23
-275 46 -275 88 0 11 10 13 48 8 l47 -5 -42 15 c-37 13 -88 64 -64 64 12 0 20
47 9 58 -15 15 2 92 21 92 13 0 13 2 2 9 -8 5 -11 16 -7 26 6 16 28 220 41
375 10 129 5 776 -6 783 -2 2 -17 9 -34 16 l-30 14 25 7 25 7 -25 11 c-22 9
-23 11 -4 11 11 1 25 -4 32 -11 11 -11 17 -2 14 23 -1 4 8 53 18 108 23 119
25 163 8 160 -23 -3 -38 1 -38 9 0 5 13 7 29 4 34 -5 38 3 45 97 5 61 4 65
-26 92 -16 16 -37 29 -45 29 -8 0 -28 14 -45 31 l-31 31 -39 -22 c-38 -21 -60
-22 -113 -5 -18 6 -18 5 -4 -7 12 -10 18 -38 22 -103 4 -49 2 -84 -2 -76 -7
10 -12 8 -24 -8 -11 -17 -21 -20 -41 -15 -21 5 -26 12 -27 38 0 30 -1 30 -10
7 l-9 -23 -22 28 c-35 45 -91 104 -98 104 -4 0 -22 -34 -41 -75 -19 -41 -37
-75 -41 -75 -4 0 -3 12 2 26 15 37 13 59 -3 46 -8 -7 -18 -7 -27 -2 -8 5 -18
6 -22 4 -4 -3 -5 2 -2 10 4 10 0 14 -13 12 -11 -2 -22 -17 -29 -42 -12 -38
-12 -39 -22 -14 -10 27 -11 24 -51 -125 l-11 -40 5 50 c3 28 8 61 11 75 l5 25
-135 -1 -135 0 -12 29 c-9 21 -9 38 -1 63 6 20 8 45 6 57 -3 12 -7 58 -10 102
-5 99 -12 145 -24 145 -5 0 -11 -8 -14 -18 -7 -21 -6 -21 -101 -26 -141 -8
-217 -19 -222 -33 -3 -7 -2 -24 1 -38 5 -19 13 -25 35 -25 16 0 44 -6 62 -14
33 -14 35 -14 71 21 l36 35 40 -38 c46 -45 64 -75 53 -92 -4 -6 -38 -18 -77
-26 -38 -8 -82 -19 -97 -25 -40 -15 -35 -46 12 -75 22 -14 42 -30 46 -36 4 -7
23 -9 49 -5 73 11 89 -44 17 -58 -37 -8 -101 -46 -101 -61 0 -6 10 -12 23 -13
57 -4 107 -15 107 -24 0 -17 16 -9 46 21 16 16 35 30 42 30 6 0 12 5 12 10 0
6 5 10 11 10 16 0 5 -151 -12 -179 -10 -15 -17 -17 -34 -9 -18 8 -32 3 -74
-22 -33 -21 -68 -33 -96 -35 -27 -2 -52 -11 -66 -24 -34 -32 -89 -26 -89 10 0
15 7 19 39 19 21 0 44 6 50 14 14 16 12 18 -64 56 -44 22 -51 30 -59 68 -6 23
-13 42 -17 42 -9 0 -31 -74 -54 -185 -10 -44 -24 -93 -32 -108 -13 -25 -17
-27 -51 -21 -48 8 -53 14 -43 49 6 22 2 47 -16 95 -28 78 -29 131 -4 185 10
23 21 62 25 88 6 37 13 51 32 59 23 11 24 14 18 82 -3 39 -10 88 -15 109 -7
24 -6 43 0 55 8 13 10 8 11 -25 0 -35 3 -42 22 -45 20 -3 27 -12 59 -79 4 -9
5 -35 2 -57 -6 -47 12 -102 33 -102 10 0 14 13 14 44 0 47 14 66 33 47 20 -20
37 -12 37 17 0 15 -4 32 -9 37 -13 14 -16 45 -7 77 4 15 3 35 -3 46 -12 22
-33 20 -81 -5 -22 -12 -27 -11 -42 7 -9 11 -21 20 -27 20 -19 0 -23 21 -11 73
22 103 23 97 -5 97 -59 0 -81 -29 -96 -123 -5 -34 -15 -76 -21 -92 -9 -26 -7
-38 12 -74 25 -51 22 -106 -10 -159 -17 -28 -19 -50 -19 -199 0 -114 4 -172
12 -182 9 -11 9 -15 0 -18 -10 -4 -13 -118 -13 -529 0 -517 0 -524 20 -524 14
0 20 7 20 23 0 27 32 57 60 57 11 0 20 5 20 10 0 6 8 10 18 10 27 0 45 45 31
72 -15 27 -55 68 -67 68 -8 0 -22 45 -22 70 0 14 70 17 82 3 14 -18 36 -16 83
7 22 11 48 19 58 20 10 0 15 5 12 11 -10 16 5 120 16 113 6 -3 16 0 24 6 8 6
32 13 55 15 22 1 49 10 59 19 10 9 25 16 34 16 10 0 17 8 17 20 0 14 7 20 24
20 21 0 25 7 37 63 10 50 14 57 19 37 6 -22 7 -21 14 15 5 26 4 41 -3 43 -14
5 -15 82 -1 82 6 0 10 9 10 20 0 16 7 20 33 21 17 0 27 3 20 5 -8 4 -3 20 16
52 l27 47 62 3 c57 3 62 5 68 28 14 54 14 12 0 -82 -29 -204 -36 -283 -35
-441 0 -90 -3 -172 -6 -184 -5 -14 -2 -25 6 -30 12 -7 12 -9 0 -9 -10 0 -12
-10 -7 -43 4 -24 9 -74 11 -112 3 -46 10 -75 22 -88 20 -23 2 -16 -30 11 -9 8
-20 12 -23 9 -16 -15 7 -232 29 -272 12 -24 16 -67 21 -240 2 -72 6 -141 10
-155 3 -14 4 -19 0 -13 -12 25 -24 12 -23 -24 0 -31 2 -34 9 -18 7 17 9 14 9
-14 1 -29 -1 -32 -14 -21 -19 16 -19 10 1 -40 l16 -40 79 0 79 0 0 30 c0 18 7
33 19 39 16 9 19 6 25 -29 6 -40 6 -40 52 -40 l47 0 -7 54 c-5 46 -3 54 10 52
8 -1 24 -17 34 -34 19 -31 28 -58 12 -37 -4 6 -15 16 -24 24 -16 12 -18 11
-18 -3 0 -9 11 -21 25 -28 13 -6 22 -15 19 -19 -3 -5 87 -9 200 -9 l205 0 -5
67 c-3 38 -8 71 -11 75 -2 5 2 8 9 8 9 0 10 2 1 8 -6 4 -10 23 -8 43 2 20 5
71 7 113 3 72 4 76 23 70 11 -3 46 -10 79 -14 55 -8 81 -23 70 -42 -5 -8 25
-16 64 -16 13 -1 22 5 22 15 0 12 7 14 28 9 15 -3 42 -8 60 -10 19 -2 36 -7
39 -10 4 -3 12 -1 19 5 9 7 21 6 42 -5 16 -8 32 -12 36 -9 3 4 6 1 6 -5 0 -6
-8 -13 -17 -15 -13 -3 -12 -5 5 -6 14 -1 22 -6 19 -13 -2 -7 2 -31 10 -53 19
-53 24 -73 28 -113 3 -39 19 -60 31 -41 4 7 6 36 5 65 -1 29 2 54 6 57 4 3 8
-11 8 -31 0 -36 1 -37 34 -34 26 2 32 -1 28 -13 -4 -8 1 -21 9 -30 8 -8 12
-20 9 -26 -5 -6 0 -10 11 -9 43 5 48 1 29 -20 -18 -20 -17 -20 404 -20 279 0
420 3 416 10 -3 6 1 10 10 10 9 0 13 -4 10 -10 -3 -5 3 -10 14 -10 12 0 21 5
21 10 0 6 7 10 15 10 8 0 15 -4 15 -10 0 -5 10 -10 23 -10 21 0 24 7 34 68 16
96 22 132 33 177 5 22 17 74 26 115 32 147 33 149 60 156 17 4 22 9 14 14 -8
5 -11 21 -8 39 4 28 2 31 -21 32 -14 0 -159 12 -321 27 l-295 28 -8 -21 c-6
-17 -14 -21 -36 -17 -27 4 -29 8 -37 65 l-9 62 -3 -63 -3 -62 -35 0 -36 0 4
55 c1 30 0 55 -4 55 -5 0 -8 -34 -8 -76 l0 -76 -27 7 c-16 4 -30 9 -33 12 -3
2 -5 36 -5 74 0 42 -4 68 -10 66 -6 -2 -9 -35 -6 -81 l3 -78 -23 7 c-13 4 -26
11 -29 14 -3 4 -14 7 -25 6 -17 0 -19 6 -17 33 2 20 -1 32 -9 32 -8 0 -10 11
-6 36 8 46 -29 129 -45 101 -6 -11 -5 -31 1 -54 23 -81 7 -177 -31 -189 -27
-8 -30 -3 -14 28 12 22 12 30 0 53 -8 15 -13 53 -13 88 1 54 9 75 52 160 61
118 82 137 149 137 79 0 117 -28 179 -133 23 -39 50 -101 60 -140 9 -38 19
-70 21 -72 3 -3 397 -35 431 -35 14 0 17 9 17 44 0 26 5 46 13 49 6 3 3 6 -9
6 -17 1 -20 -4 -17 -32 l4 -32 -16 28 c-11 19 -13 32 -6 45 10 20 3 72 -10 72
-5 0 -9 14 -9 31 0 17 -4 28 -10 24 -5 -3 -11 -1 -11 4 -1 6 -2 17 -3 24 -1 6
-8 11 -15 9 -7 -1 -10 2 -6 8 3 6 0 7 -9 4 -9 -3 -13 -10 -10 -15 3 -5 1 -9
-5 -9 -6 0 -14 12 -17 27 -6 23 -8 24 -19 10 -23 -31 -35 -19 -35 35 0 28 3
48 7 45 3 -4 6 -23 5 -43 -1 -24 2 -34 11 -31 7 2 11 20 10 43 -2 36 -1 37 6
9 l8 -30 5 30 c4 25 5 24 7 -12 1 -31 5 -43 16 -43 9 0 15 10 15 26 0 14 4 33
10 43 8 16 3 19 -43 25 -85 10 -89 9 -77 -14 6 -11 9 -32 6 -47 -2 -16 -5 -31
-5 -35 -1 -5 -11 -8 -22 -8 -22 0 -22 7 -6 104 1 6 -5 11 -13 13 -12 3 -15 -7
-15 -49 0 -42 -3 -53 -17 -56 -15 -3 -18 4 -18 33 0 20 5 45 10 56 9 16 7 19
-13 19 -13 0 -45 3 -70 6 l-46 7 -3 -54 c-3 -45 -6 -54 -23 -57 -18 -2 -20 2
-17 42 7 79 14 81 212 66 122 -10 174 -10 181 -3 15 15 2 70 -19 78 -9 3 -84
13 -166 21 -83 8 -152 17 -154 18 -2 2 9 16 23 31 18 17 25 33 22 47 -5 19 -3
20 56 14 34 -3 159 -13 277 -21 118 -9 224 -20 236 -24 19 -8 20 -14 12 -68
-4 -32 -10 -147 -12 -256 -4 -156 -2 -197 8 -197 10 0 15 50 22 208 11 262 9
369 -7 388 -7 9 -15 11 -18 5 -4 -5 -11 1 -18 15 -12 27 3 34 25 12 9 -9 12
-7 12 8 0 12 -10 25 -25 32 -22 10 -25 18 -25 67 0 35 -4 54 -10 50 -5 -3 -10
-40 -10 -81 l0 -74 -32 0 c-18 0 -96 7 -173 14 -77 8 -177 18 -222 22 l-83 7
0 55 c0 49 3 59 27 78 l27 21 -32 50 c-24 37 -38 80 -57 169 -48 228 -62 273
-79 245 -13 -20 -26 -11 -26 18 0 16 -4 31 -10 33 -6 2 -9 51 -9 118 1 166 1
169 -10 188 -9 14 -11 12 -11 -13 -1 -21 -3 -25 -8 -13 -9 22 -32 9 -35 -20
-1 -12 -5 -22 -10 -22 -5 0 -7 7 -4 15 4 8 2 17 -2 20 -5 2 -12 20 -15 38 -3
19 -13 42 -22 53 -13 16 -15 17 -10 2 8 -27 -8 -21 -26 10 -9 15 -35 47 -57
72 -23 24 -41 49 -41 55 0 13 -87 58 -174 90 -77 28 -79 29 -71 15 3 -5 -1
-10 -9 -10 -8 0 -21 10 -27 23 -6 12 -23 34 -36 49 -25 27 -24 48 3 48 8 0 14
7 14 15 0 16 30 35 54 35 18 0 22 -26 6 -32 -6 -2 -13 -19 -16 -38 -4 -28 -1
-37 15 -47 32 -20 80 2 98 44 13 32 17 35 48 29 26 -5 41 -1 71 19 20 14 49
25 65 25 36 0 40 17 16 63 -32 62 -87 76 -120 32z m-95 -371 c23 -5 26 -3 21
15 -7 27 -1 27 23 -1 10 -12 13 -18 7 -14 -7 4 -13 2 -13 -3 0 -30 -102 4
-114 38 -3 9 -9 22 -12 30 -4 7 9 -3 27 -22 19 -20 46 -39 61 -43z m96 37 c3
-10 0 -11 -16 -2 -11 6 -29 11 -39 11 -11 0 -28 6 -39 14 -17 13 -12 13 35 3
30 -7 56 -18 59 -26z m59 -200 c-17 -7 -25 14 -14 39 l10 25 6 -30 c4 -16 3
-32 -2 -34z m-890 -188 c-2 -38 -3 -7 -3 67 0 74 1 105 3 68 2 -38 2 -98 0
-135z m1033 -28 c7 -33 17 -63 24 -67 6 -4 -5 -7 -24 -7 -19 0 -29 3 -23 6 10
3 9 8 -2 20 -8 8 -15 22 -15 31 0 15 2 15 11 2 9 -12 10 -12 5 4 -9 26 -15
208 -7 226 3 8 9 -23 12 -70 3 -47 12 -112 19 -145z m-1220 95 c11 -6 21 -6
24 -1 3 5 15 11 26 14 16 4 18 2 10 -13 -6 -10 -10 -32 -10 -49 0 -24 4 -31
20 -31 18 0 17 -4 -12 -47 -17 -27 -33 -50 -35 -52 -1 -2 -12 4 -23 14 -18 16
-18 20 -5 46 8 15 14 41 14 56 -1 21 -3 23 -7 8 l-5 -20 -7 20 c-8 19 -8 19
-19 -5 -9 -20 -11 -21 -9 -5 1 18 -13 63 -28 86 -5 9 33 -3 66 -21z m305 11
c0 -8 -7 -16 -15 -19 -8 -3 -12 -1 -8 3 4 5 2 15 -4 23 -10 12 -9 14 7 11 11
-3 20 -11 20 -18z m-35 -65 c0 -3 -4 -8 -10 -11 -5 -3 -10 -1 -10 4 0 6 5 11
10 11 6 0 10 -2 10 -4z m977 -88 c-3 -7 -5 -2 -5 12 0 14 2 19 5 13 2 -7 2
-19 0 -25z m-1690 0 c-3 -8 -6 -5 -6 6 -1 11 2 17 5 13 3 -3 4 -12 1 -19z
m713 2 c13 -9 13 -10 0 -10 -8 0 -22 5 -30 10 -13 9 -13 10 0 10 8 0 22 -5 30
-10z m966 -48 c14 -9 26 -70 15 -77 -18 -10 -36 6 -47 40 -14 43 0 59 32 37z
m-1689 -44 c-3 -7 -5 -2 -5 12 0 14 2 19 5 13 2 -7 2 -19 0 -25z m1437 -36
c-8 -45 -12 -50 -19 -26 -4 10 -11 27 -16 36 -12 24 -12 23 16 26 25 2 26 0
19 -36z m-726 -1 c3 -8 -1 -12 -9 -9 -7 2 -15 10 -17 17 -3 8 1 12 9 9 7 -2
15 -10 17 -17z m-108 -27 c0 -2 -15 -4 -32 -4 -23 0 -29 3 -19 9 12 8 51 4 51
-5z m-77 -1 c-7 -2 -19 -2 -25 0 -7 3 -2 5 12 5 14 0 19 -2 13 -5z m1158 -143
l-8 -125 -2 131 c0 72 2 134 7 138 12 13 13 -13 3 -144z m-1351 134 c0 -3 -13
-10 -29 -15 -20 -7 -28 -15 -24 -25 3 -8 0 -14 -6 -14 -6 0 -11 6 -11 14 0 8
-3 21 -6 30 -5 13 2 16 35 16 23 0 41 -2 41 -6z m1180 -20 c0 -8 -5 -14 -11
-14 -5 0 -7 5 -4 10 3 6 1 10 -5 10 -6 0 -8 5 -5 10 8 13 25 3 25 -16z m-1729
-4 c5 0 9 -13 9 -30 0 -16 5 -30 11 -30 19 0 -49 -53 -73 -57 -12 -2 -42 -16
-68 -32 -25 -16 -62 -39 -83 -50 l-39 -22 7 42 c7 39 6 40 -13 30 -12 -6 -30
-11 -41 -11 -18 0 -21 6 -21 39 0 48 21 70 48 50 9 -8 22 -20 27 -27 11 -14
102 -2 114 15 3 6 16 15 28 22 13 6 30 25 39 42 10 20 20 29 30 25 9 -3 20 -6
25 -6z m186 -57 c-3 -10 -5 -4 -5 12 0 17 2 24 5 18 2 -7 2 -21 0 -30z m510 2
c0 -8 -4 -15 -9 -15 -4 0 -8 7 -8 15 0 8 4 15 8 15 5 0 9 -7 9 -15z m-1078
-159 c11 -13 29 -12 97 9 35 11 35 -9 0 -37 -36 -29 -107 -54 -128 -45 -8 3
-15 22 -16 46 -2 35 0 41 16 41 11 0 25 -6 31 -14z m1309 -14 c2 -7 -2 -10
-12 -6 -10 4 -16 1 -16 -7 0 -11 -2 -11 -9 1 -6 8 -7 18 -4 23 7 12 35 5 41
-11z m569 2 c-3 -3 -12 -4 -19 -1 -8 3 -5 6 6 6 11 1 17 -2 13 -5z m399 -51
c-10 -10 -19 5 -10 18 6 11 8 11 12 0 2 -7 1 -15 -2 -18z m-2096 -108 c0 -24
-35 -67 -64 -78 -9 -4 -16 -13 -16 -22 0 -11 -11 -15 -45 -15 -38 0 -45 3 -45
20 0 15 7 20 25 20 18 0 25 5 25 20 0 22 25 28 33 8 3 -7 6 2 6 20 1 25 5 32
21 32 11 0 20 5 20 10 0 6 9 10 20 10 15 0 20 -7 20 -25z m2363 -22 c-7 -2
-19 -2 -25 0 -7 3 -2 5 12 5 14 0 19 -2 13 -5z m-1241 -111 c-7 -2 -10 -8 -6
-13 3 -5 0 -9 -5 -9 -12 0 -15 23 -5 33 4 4 12 4 17 0 8 -5 7 -8 -1 -11z
m1205 -4 c-3 -8 -6 -5 -6 6 -1 11 2 17 5 13 3 -3 4 -12 1 -19z m446 -125 c-13
-2 -35 -2 -50 0 -16 2 -5 4 22 4 28 0 40 -2 28 -4z m70 -10 c-7 -2 -19 -2 -25
0 -7 3 -2 5 12 5 14 0 19 -2 13 -5z m-613 -83 c14 0 20 -4 14 -8 -6 -4 -13
-12 -15 -18 -2 -6 -15 3 -28 20 -14 17 -18 25 -11 19 8 -7 25 -13 40 -13z
m-2583 -22 c-3 -8 -6 -5 -6 6 -1 11 2 17 5 13 3 -3 4 -12 1 -19z m1068 -83
c-9 -33 -18 -109 -21 -170 -6 -121 -34 -250 -89 -410 l-35 -100 3 95 c1 81 5
98 24 121 25 30 29 60 11 88 -9 15 -8 24 5 43 10 12 24 33 33 45 9 13 19 62
25 125 6 57 15 111 20 120 5 10 9 32 9 50 0 17 6 47 13 67 11 32 12 33 15 10
2 -13 -4 -51 -13 -84z m1390 94 c11 -17 -1 -21 -15 -4 -8 9 -8 15 -2 15 6 0
14 -5 17 -11z m24 -67 c0 -11 -2 -12 -6 -4 -2 6 -9 10 -14 7 -5 -4 -6 1 -3 9
8 20 24 11 23 -12z m-999 1 c0 -10 -4 -14 -8 -8 -4 6 -11 13 -16 18 -5 4 -2 7
7 7 10 0 17 -8 17 -17z m932 -9 c31 -16 29 -28 -7 -37 -18 -4 -17 -5 3 -6 13
0 21 -5 18 -10 -4 -5 -18 -5 -34 1 -24 9 -27 16 -24 39 5 34 4 34 44 13z m92
-31 c-8 -9 -18 -12 -22 -9 -3 4 -1 11 6 15 7 4 10 16 7 27 -6 18 -6 19 9 0 13
-16 13 -20 0 -33z m-1771 -10 c-7 -2 -19 -2 -25 0 -7 3 -2 5 12 5 14 0 19 -2
13 -5z m1959 -42 c4 -51 1 -61 -22 -61 -19 0 -23 17 -13 73 7 41 30 33 35 -12z
m56 -18 c-3 -38 -7 -48 -21 -48 -9 0 -17 3 -17 8 0 4 0 25 0 47 0 34 3 40 21
40 18 0 20 -5 17 -47z m-2759 34 c-2 -1 -12 -9 -21 -16 -15 -12 -18 -11 -18 3
0 10 8 16 22 16 12 0 19 -1 17 -3z m2589 -59 l-13 -23 -3 23 c-2 13 -1 31 3
40 6 16 7 16 16 0 7 -12 6 -25 -3 -40z m-1778 -88 c0 -5 -8 -10 -17 -10 -15 0
-16 2 -3 10 19 12 20 12 20 0z m650 -82 c0 -18 -2 -20 -9 -8 -6 8 -7 18 -5 22
9 14 14 9 14 -14z m-683 -14 c-3 -3 -12 -4 -19 -1 -8 3 -5 6 6 6 11 1 17 -2
13 -5z m40 -80 c-3 -3 -12 -4 -19 -1 -8 3 -5 6 6 6 11 1 17 -2 13 -5z m1770
-191 c-3 -15 -6 -13 -14 7 -8 18 -7 27 1 32 12 8 20 -13 13 -39z m-60 5 c-3
-7 -5 -2 -5 12 0 14 2 19 5 13 2 -7 2 -19 0 -25z m123 7 c0 -25 -14 -34 -24
-16 -8 12 3 41 15 41 5 0 9 -11 9 -25z m58 -2 c-4 -39 -28 -42 -28 -4 0 21 5
31 16 31 11 0 14 -8 12 -27z m60 -17 c-3 -24 -5 -25 -20 -14 -12 10 -14 19 -7
37 12 31 32 14 27 -23z m52 4 c0 -20 -5 -30 -15 -30 -16 0 -19 17 -9 44 10 26
24 18 24 -14z m58 -5 c-1 -35 -11 -45 -23 -24 -9 13 3 59 15 59 5 0 9 -16 8
-35z m51 -21 c-13 -34 -24 -16 -14 23 4 17 10 22 16 16 6 -6 6 -20 -2 -39z
m-467 3 c-3 -12 -10 -26 -16 -30 -8 -6 -7 -10 2 -14 7 -3 12 -23 12 -49 0 -28
-5 -44 -12 -45 -10 0 -10 -2 0 -6 13 -5 7 -23 -9 -23 -10 0 -12 85 -3 153 4
31 11 44 19 41 8 -3 11 -14 7 -27z m605 1 c-3 -8 -6 -5 -6 6 -1 11 2 17 5 13
3 -3 4 -12 1 -19z m-77 -8 c0 -5 -4 -10 -10 -10 -5 0 -10 5 -10 10 0 6 5 10
10 10 6 0 10 -4 10 -10z m-235 -20 c3 -5 1 -10 -4 -10 -6 0 -11 5 -11 10 0 6
2 10 4 10 3 0 8 -4 11 -10z m65 -10 c0 -5 -2 -10 -4 -10 -3 0 -8 5 -11 10 -3
6 -1 10 4 10 6 0 11 -4 11 -10z m60 0 c0 -5 -4 -10 -10 -10 -5 0 -10 5 -10 10
0 6 5 10 10 10 6 0 10 -4 10 -10z m55 -10 c-3 -5 -10 -10 -16 -10 -5 0 -9 5
-9 10 0 6 7 10 16 10 8 0 12 -4 9 -10z m65 0 c0 -5 -7 -10 -15 -10 -8 0 -15 5
-15 10 0 6 7 10 15 10 8 0 15 -4 15 -10z m54 -11 c-6 -11 -24 -2 -24 11 0 5 7
7 15 4 8 -4 12 -10 9 -15z m57 -34 c3 2 6 -11 7 -29 2 -27 -2 -35 -20 -39 -29
-8 -30 -7 -22 42 5 31 10 39 19 31 6 -5 14 -8 16 -5z m-2117 -105 c19 -35 24
-55 18 -66 -7 -13 -11 -11 -21 14 -7 17 -24 45 -37 63 -13 18 -24 42 -24 52 0
19 1 19 19 3 10 -9 30 -39 45 -66z m-62 26 c22 -26 24 -60 3 -52 -24 9 -45 -4
-45 -28 1 -21 1 -21 15 -2 14 18 15 18 15 2 0 -9 4 -15 9 -12 5 4 4 -5 -2 -19
-7 -14 -26 -30 -45 -36 -18 -6 -30 -14 -28 -18 3 -4 -8 -8 -24 -8 -17 0 -30 4
-30 9 0 4 -9 8 -20 8 -14 0 -20 7 -20 21 0 11 -4 17 -10 14 -11 -6 -26 42 -16
52 3 4 6 -1 6 -11 0 -9 5 -14 10 -11 6 3 8 16 4 29 -6 25 28 76 52 76 8 0 14
5 14 11 0 19 92 -2 112 -25z m1512 -41 c3 -8 1 -15 -4 -15 -6 0 -10 7 -10 15
0 8 2 15 4 15 2 0 6 -7 10 -15z m653 -11 c-3 -3 -12 -4 -19 -1 -8 3 -5 6 6 6
11 1 17 -2 13 -5z m6 -37 c3 -8 2 -19 -2 -26 -5 -8 -11 -3 -19 14 -9 20 -9 25
2 25 8 0 16 -6 19 -13z m-656 -3 c-3 -3 -12 -4 -19 -1 -8 3 -5 6 6 6 11 1 17
-2 13 -5z m633 -94 c13 -8 13 -10 -2 -10 -9 0 -20 5 -23 10 -8 13 5 13 25 0z
m-2256 -25 c10 -27 -5 -46 -33 -43 -20 2 -27 9 -29 31 -3 24 0 27 26 27 17 0
32 -6 36 -15z m2081 -62 c-9 -36 -13 -39 -27 -25 -9 9 -9 12 3 12 12 0 12 2
-1 10 -13 9 -13 10 0 10 13 0 13 1 0 10 -12 8 -10 10 9 10 20 0 22 -3 16 -27z
m52 2 c0 -8 -5 -15 -10 -15 -5 0 -4 -7 3 -15 10 -12 10 -15 -4 -15 -11 0 -16
9 -16 30 0 18 5 30 13 30 8 0 14 -7 14 -15z m120 -1 c-3 -3 -12 -4 -19 -1 -8
3 -5 6 6 6 11 1 17 -2 13 -5z m-57 -20 c0 -2 -7 -4 -15 -4 -8 0 -15 4 -15 10
0 5 7 7 15 4 8 -4 15 -8 15 -10z m53 -1 c-7 -2 -19 -2 -25 0 -7 3 -2 5 12 5
14 0 19 -2 13 -5z"/>
<path d="M2510 1100 c0 -5 5 -10 11 -10 5 0 7 5 4 10 -3 6 -8 10 -11 10 -2 0
-4 -4 -4 -10z"/>
<path d="M888 273 c6 -2 18 -2 25 0 6 3 1 5 -13 5 -14 0 -19 -2 -12 -5z"/>
<path d="M264 2888 c-23 -25 -4 -62 34 -65 15 -2 51 -5 80 -7 29 -3 59 -9 65
-14 17 -13 92 -8 111 7 24 20 20 56 -9 69 -14 6 -55 11 -92 11 -38 0 -92 4
-120 9 -46 8 -55 6 -69 -10z"/>
<path d="M3856 2814 c-8 -21 -7 -89 3 -139 l7 -40 7 55 c9 76 9 128 -2 134 -5
3 -12 -1 -15 -10z"/>
<path d="M1565 2741 c-8 -37 -4 -131 6 -131 4 0 10 -10 12 -22 2 -13 2 -5 -1
17 -3 22 -5 68 -3 103 2 66 -3 80 -14 33z"/>
<path d="M3172 2740 c0 -19 2 -27 5 -17 2 9 2 25 0 35 -3 9 -5 1 -5 -18z"/>
<path d="M5220 2690 c0 -5 -6 -10 -14 -10 -12 0 -32 -29 -24 -35 2 -1 37 -9
78 -19 41 -9 91 -21 110 -25 19 -5 60 -14 90 -21 30 -6 66 -16 80 -21 14 -5
43 -10 65 -12 21 -2 41 -9 43 -16 6 -18 22 -13 22 8 0 29 17 34 45 14 15 -11
24 -28 25 -45 0 -18 5 -28 15 -28 8 0 14 -6 13 -12 -2 -9 14 -14 52 -15 46 -1
50 0 23 6 -39 10 -63 28 -63 48 0 25 116 -7 135 -37 3 -5 0 -10 -7 -10 -9 0
-9 -3 2 -10 8 -5 32 -10 53 -10 l37 0 0 125 0 125 -75 0 c-41 0 -75 -4 -75 -9
0 -5 -13 -14 -29 -19 -23 -8 -31 -7 -45 9 -17 21 -100 27 -111 9 -4 -6 -14 -9
-23 -8 -13 2 -16 -3 -14 -20 3 -22 1 -23 -35 -17 -98 17 -186 37 -224 50 -47
17 -149 20 -149 5z"/>
<path d="M4480 2650 c0 -6 7 -10 15 -10 8 0 15 2 15 4 0 2 -7 6 -15 10 -8 3
-15 1 -15 -4z"/>
<path d="M4638 2643 c6 -2 18 -2 25 0 6 3 1 5 -13 5 -14 0 -19 -2 -12 -5z"/>
<path d="M5120 2620 c34 -11 60 -11 35 0 -11 5 -29 8 -40 8 -16 0 -15 -2 5 -8z"/>
<path d="M1409 2558 c-12 -23 -12 -23 10 -4 23 21 26 26 11 26 -5 0 -15 -10
-21 -22z"/>
<path d="M3160 2556 c0 -7 -3 -34 -6 -60 -6 -38 -4 -46 10 -46 13 0 16 11 16
60 0 33 -4 60 -10 60 -5 0 -10 -6 -10 -14z"/>
<path d="M717 2553 c-47 -78 -48 -82 -29 -121 20 -43 38 -49 163 -51 55 -1 91
3 100 12 22 18 51 67 40 67 -5 0 -13 -4 -16 -10 -3 -5 -13 -10 -21 -10 -12 0
-15 10 -14 43 2 23 2 47 1 54 -1 8 -33 12 -102 12 -55 1 -105 3 -109 6 -5 3
-11 2 -13 -2z"/>
<path d="M1028 2543 c-24 -4 -28 -9 -28 -38 0 -40 17 -39 70 6 19 16 26 26 16
22 -13 -4 -17 -3 -12 5 7 12 4 13 -46 5z"/>
<path d="M1586 2542 c-4 -7 -5 -16 -2 -21 4 -5 1 -11 -6 -13 -9 -3 -9 -6 0
-12 7 -4 12 -2 12 4 0 6 5 8 10 5 11 -7 12 2 1 29 -5 14 -10 16 -15 8z"/>
<path d="M1280 2500 c0 -6 16 -36 36 -67 23 -36 39 -52 45 -46 11 11 -14 73
-41 105 -16 20 -40 24 -40 8z"/>
<path d="M5617 2467 c-14 -38 -2 -52 44 -50 57 2 56 2 39 13 -8 5 -23 7 -32 4
-11 -3 -21 4 -31 22 -11 20 -15 23 -20 11z"/>
<path d="M2591 2388 c0 -7 4 -22 9 -33 8 -19 9 -19 9 3 1 12 1 25 2 29 0 4 -4
9 -10 11 -6 2 -11 -2 -10 -10z"/>
<path d="M5248 2333 c-27 -31 -28 -62 -5 -86 12 -13 19 -19 16 -14 -4 5 -1 21
7 35 15 30 19 82 6 82 -5 0 -16 -8 -24 -17z"/>
<path d="M5532 2320 c0 -14 2 -19 5 -12 2 6 2 18 0 25 -3 6 -5 1 -5 -13z"/>
<path d="M3153 2303 c-5 -15 -11 -106 -12 -201 -1 -94 -6 -206 -10 -246 -4
-41 -4 -73 0 -71 3 3 14 31 23 63 12 46 16 106 17 266 1 114 -1 210 -4 212 -3
3 -9 -8 -14 -23z"/>
<path d="M5643 2297 c-18 -39 -16 -55 8 -67 27 -15 35 -6 21 23 -6 12 -12 33
-14 47 l-3 24 -12 -27z"/>
<path d="M3387 2223 c-16 -15 -6 -33 18 -33 18 0 25 5 25 20 0 20 -28 28 -43
13z"/>
<path d="M5194 2206 c-8 -22 -2 -27 16 -16 12 7 12 12 3 21 -10 10 -14 9 -19
-5z"/>
<path d="M2730 2149 c0 -42 20 -119 31 -119 12 0 6 59 -9 86 -6 11 -8 30 -5
42 3 13 1 22 -6 22 -6 0 -11 -14 -11 -31z"/>
<path d="M3845 2120 c-9 -15 -14 -190 -5 -190 9 0 25 189 17 196 -3 3 -8 0
-12 -6z"/>
<path d="M4792 2088 c-73 -106 -82 -122 -81 -137 0 -11 3 -8 9 7 5 12 14 22
20 22 5 0 10 6 10 13 0 7 6 21 13 30 11 14 20 11 91 -33 43 -27 84 -51 90 -54
7 -3 6 -8 -4 -15 -10 -7 -12 -13 -4 -18 6 -5 14 -17 18 -28 6 -16 5 -18 -5 -7
-17 16 -30 15 -23 -2 6 -15 21 -16 42 -3 20 13 83 117 77 128 -10 15 -23 10
-30 -12 -4 -11 -18 -25 -33 -30 -21 -8 -31 -6 -54 11 -15 11 -39 25 -53 30
-14 5 -25 14 -25 20 0 5 -8 10 -18 10 -45 0 -55 48 -17 78 14 11 21 23 16 26
-5 4 -23 -13 -39 -36z"/>
<path d="M4970 2085 c13 -14 26 -25 28 -25 3 0 -5 11 -18 25 -13 14 -26 25
-28 25 -3 0 5 -11 18 -25z"/>
<path d="M4860 2059 c0 -5 5 -7 10 -4 6 3 10 8 10 11 0 2 -4 4 -10 4 -5 0 -10
-5 -10 -11z"/>
<path d="M3956 2025 c4 -8 10 -15 15 -15 4 0 6 7 3 15 -4 8 -10 15 -15 15 -4
0 -6 -7 -3 -15z"/>
<path d="M4847 1894 c-2 -13 0 -24 4 -24 5 0 9 6 9 14 0 8 5 16 12 18 8 3 6 6
-4 10 -11 5 -17 0 -21 -18z"/>
<path d="M3832 1890 c0 -14 2 -19 5 -12 2 6 2 18 0 25 -3 6 -5 1 -5 -13z"/>
<path d="M3367 1778 c-4 -46 -9 -101 -12 -123 l-5 -40 18 40 c19 42 30 205 14
205 -5 0 -12 -37 -15 -82z"/>
<path d="M3123 1533 c2 -95 4 -108 20 -111 16 -3 17 5 15 105 -3 92 -6 108
-20 111 -15 3 -16 -8 -15 -105z"/>
<path d="M5386 1533 c-12 -12 -6 -33 9 -33 8 0 15 6 15 14 0 17 -14 28 -24 19z"/>
<path d="M5395 1470 c3 -5 8 -10 11 -10 2 0 4 5 4 10 0 6 -5 10 -11 10 -5 0
-7 -4 -4 -10z"/>
<path d="M5380 1440 c0 -3 8 -14 17 -25 13 -16 15 -17 10 -2 -4 9 -2 17 3 17
6 0 10 4 10 9 0 6 -9 9 -20 8 -11 -1 -20 -4 -20 -7z"/>
<path d="M5380 1330 c-12 -8 -11 -10 8 -10 12 0 22 5 22 10 0 13 -11 13 -30 0z"/>
<path d="M3116 1014 c-11 -29 -7 -74 8 -74 14 0 27 55 19 78 -7 17 -20 15 -27
-4z"/>
<path d="M3192 810 c0 -14 2 -19 5 -12 2 6 2 18 0 25 -3 6 -5 1 -5 -13z"/>
<path d="M3262 789 c2 -7 10 -15 17 -17 8 -3 12 1 9 9 -2 7 -10 15 -17 17 -8
3 -12 -1 -9 -9z"/>
<path d="M0 375 l0 -375 149 0 c146 0 149 0 155 23 9 34 7 47 -7 47 -8 0 -22
9 -32 20 -11 12 -21 16 -25 10 -12 -19 -39 14 -46 57 -6 38 -4 43 18 54 19 8
24 17 20 35 -2 13 -10 24 -17 24 -7 0 -15 4 -17 10 -1 5 -15 10 -30 10 -16 0
-40 0 -55 0 -15 0 -30 -6 -35 -12 -5 -9 -8 -7 -7 7 0 12 26 42 65 75 49 42 64
61 64 82 0 14 -6 28 -12 30 -8 3 -4 9 10 17 18 10 22 20 22 59 0 35 5 52 20
65 24 20 26 59 5 77 -13 10 -13 15 -3 21 10 6 9 9 -2 13 -54 18 -104 26 -167
26 l-73 0 0 -375z m67 -121 c-3 -3 -12 -4 -19 -1 -8 3 -5 6 6 6 11 1 17 -2 13
-5z"/>
<path d="M3237 733 c-2 -5 -5 -27 -6 -50 l-3 -43 37 0 c22 0 34 4 30 10 -3 6
-2 10 4 10 6 0 9 6 7 13 -3 6 -7 24 -10 40 -5 20 -12 27 -31 27 -13 0 -26 -3
-28 -7z"/>
<path d="M5591 458 c0 -7 4 -22 8 -33 8 -19 8 -19 15 2 8 24 1 43 -15 43 -5 0
-9 -6 -8 -12z"/>
<path d="M3345 348 c-28 -102 -65 -280 -65 -315 0 -32 2 -33 39 -33 l39 0 4
203 c2 111 3 203 2 205 -1 1 -9 -26 -19 -60z"/>
<path d="M180 350 c0 -45 8 -49 35 -20 16 18 16 20 2 20 -10 0 -17 8 -17 20 0
11 -4 20 -10 20 -5 0 -10 -18 -10 -40z"/>
<path d="M5800 300 c0 -5 7 -10 16 -10 8 0 12 5 9 10 -3 6 -10 10 -16 10 -5 0
-9 -4 -9 -10z"/>
<path d="M5520 250 c0 -19 3 -21 12 -12 9 9 9 15 0 24 -9 9 -12 7 -12 -12z"/>
<path d="M2030 250 c-12 -8 -11 -10 7 -10 12 0 25 5 28 10 8 13 -15 13 -35 0z"/>
<path d="M1678 222 c-4 -15 1 -18 31 -19 32 -1 33 -1 11 7 -14 4 -18 9 -10 9
13 1 13 2 0 11 -21 14 -27 12 -32 -8z"/>
<path d="M2005 220 c3 -5 11 -10 16 -10 6 0 7 5 4 10 -3 6 -11 10 -16 10 -6 0
-7 -4 -4 -10z"/>
<path d="M5391 204 c0 -11 3 -14 6 -6 3 7 2 16 -1 19 -3 4 -6 -2 -5 -13z"/>
<path d="M5520 202 c0 -15 -6 -22 -20 -22 -11 0 -20 -4 -20 -10 0 -5 11 -10
24 -10 28 0 45 35 27 53 -8 8 -11 5 -11 -11z"/>
<path d="M4408 193 c7 -3 16 -2 19 1 4 3 -2 6 -13 5 -11 0 -14 -3 -6 -6z"/>
<path d="M200 170 c0 -16 7 -20 30 -20 23 0 30 4 30 20 0 16 -7 20 -30 20 -23
0 -30 -4 -30 -20z"/>
<path d="M2047 164 c-16 -9 -27 -18 -24 -20 7 -8 57 15 57 26 0 12 1 13 -33
-6z"/>
<path d="M4448 133 c12 -2 30 -2 40 0 9 3 -1 5 -23 4 -22 0 -30 -2 -17 -4z"/>
<path d="M5481 131 c-11 -7 -11 -15 -2 -43 6 -19 10 -45 9 -58 -2 -15 3 -25
12 -27 11 -3 15 7 16 42 1 35 -3 46 -18 51 -10 3 -16 9 -13 14 3 5 11 7 19 4
7 -3 13 2 13 11 0 17 -15 19 -36 6z"/>
<path d="M1720 116 l25 -16 -32 6 c-28 6 -33 4 -33 -13 0 -11 12 -29 26 -42
20 -18 23 -25 14 -37 -19 -22 87 -20 112 2 16 16 18 16 24 0 5 -14 24 -16 125
-16 117 0 119 0 119 23 0 12 3 32 6 45 5 16 2 22 -10 22 -10 0 -16 9 -17 23
-1 20 -2 20 -12 -5 -9 -22 -21 -30 -63 -39 -30 -7 -51 -16 -49 -20 3 -4 -5 -9
-17 -11 -15 -2 -27 4 -33 16 -5 10 -17 23 -25 27 -29 15 -115 41 -150 45 l-35
5 25 -15z m164 -61 c-6 -16 -24 -21 -24 -7 0 11 11 22 21 22 5 0 6 -7 3 -15z
m132 -12 c-15 -4 -16 -7 -5 -14 10 -6 6 -8 -13 -7 -21 2 -24 5 -16 15 6 7 20
12 32 12 19 -1 19 -2 2 -6z"/>
<path d="M4530 82 c0 -15 48 -24 68 -13 14 9 13 10 -10 11 -14 0 -33 3 -42 6
-9 3 -16 2 -16 -4z"/>
<path d="M4810 81 l-45 -7 38 -5 c25 -3 42 -1 49 8 6 7 9 12 7 11 -2 0 -24 -4
-49 -7z"/>
<path d="M5460 45 c0 -8 5 -15 10 -15 6 0 10 7 10 15 0 8 -4 15 -10 15 -5 0
-10 -7 -10 -15z"/>
<path d="M1160 10 c0 -5 5 -10 10 -10 6 0 10 5 10 10 0 6 -4 10 -10 10 -5 0
-10 -4 -10 -10z"/>
</g>
</svg>
